HIERARCHY
ROOT Hips
{
	OFFSET 0.000000 1.471914 24.280096
	CHANNELS 6 Xposition Yposition Zposition Xrotation Yrotation Zrotation
	JOINT Spine
	{
		OFFSET 0.000000 0.900110 1.860670
		CHANNELS 6 Xposition Yposition Zposition Xrotation Yrotation Zrotation
		JOINT Spine1
		{
			OFFSET 0.000000 0.400320 2.270309
			CHANNELS 6 Xposition Yposition Zposition Xrotation Yrotation Zrotation
			JOINT Spine2
			{
				OFFSET 0.000000 0.200920 2.296560
				CHANNELS 6 Xposition Yposition Zposition Xrotation Yrotation Zrotation
				JOINT Spine3
				{
					OFFSET 0.000000 0.000000 2.305330
					CHANNELS 6 Xposition Yposition Zposition Xrotation Yrotation Zrotation
					JOINT Neck
					{
						OFFSET 0.000000 -0.864490 6.051487
						CHANNELS 6 Xposition Yposition Zposition Xrotation Yrotation Zrotation
						JOINT Head
						{
							OFFSET 0.000000 -0.550429 3.121674
							CHANNELS 6 Xposition Yposition Zposition Xrotation Yrotation Zrotation
							End Site
							{
								OFFSET 0.000000 0.000000 3.731750
							}
						}
					}
					JOINT RightShoulder
					{
						OFFSET -0.788280 -1.313800 4.256718
						CHANNELS 6 Xposition Yposition Zposition Xrotation Yrotation Zrotation
						JOINT RightArm
						{
							OFFSET -3.915130 0.000000 0.000000
							CHANNELS 6 Xposition Yposition Zposition Xrotation Yrotation Zrotation
							JOINT RightForeArm
							{
								OFFSET -6.914910 0.000000 0.000000
								CHANNELS 6 Xposition Yposition Zposition Xrotation Yrotation Zrotation
								JOINT RightHand
								{
									OFFSET -6.096219 0.000000 0.000000
									CHANNELS 6 Xposition Yposition Zposition Xrotation Yrotation Zrotation
									JOINT RightHandEnd
									{
										OFFSET -1.749950 0.000000 0.000000
										CHANNELS 6 Xposition Yposition Zposition Xrotation Yrotation Zrotation
										End Site
										{
											OFFSET -1.749950 0.000000 0.000000
										}
									}
									JOINT RightHandThumb1
									{
										OFFSET -0.699980 -1.166630 -0.466648
										CHANNELS 6 Xposition Yposition Zposition Xrotation Yrotation Zrotation
										End Site
										{
											OFFSET -1.690319 -0.452920 0.000000
										}
									}
								}
							}
						}
					}
					JOINT LeftShoulder
					{
						OFFSET 0.788280 -1.313800 4.256718
						CHANNELS 6 Xposition Yposition Zposition Xrotation Yrotation Zrotation
						JOINT LeftArm
						{
							OFFSET 3.915130 0.000000 0.000000
							CHANNELS 6 Xposition Yposition Zposition Xrotation Yrotation Zrotation
							JOINT LeftForeArm
							{
								OFFSET 6.914910 0.000000 0.000000
								CHANNELS 6 Xposition Yposition Zposition Xrotation Yrotation Zrotation
								JOINT LeftHand
								{
									OFFSET 6.096219 0.000000 0.000000
									CHANNELS 6 Xposition Yposition Zposition Xrotation Yrotation Zrotation
									JOINT LeftHandEnd
									{
										OFFSET 1.749950 0.000000 0.000000
										CHANNELS 6 Xposition Yposition Zposition Xrotation Yrotation Zrotation
										End Site
										{
											OFFSET 1.749950 0.000000 0.000000
										}
									}
									JOINT LeftHandThumb1
									{
										OFFSET 0.699980 -1.166630 -0.466648
										CHANNELS 6 Xposition Yposition Zposition Xrotation Yrotation Zrotation
										End Site
										{
											OFFSET 1.690319 -0.452920 0.000000
										}
									}
								}
							}
						}
					}
				}
			}
		}
	}
	JOINT RightUpLeg
	{
		OFFSET -2.338570 -0.252550 -0.551512
		CHANNELS 6 Xposition Yposition Zposition Xrotation Yrotation Zrotation
		JOINT RightLeg
		{
			OFFSET 0.000000 0.000000 -10.744959
			CHANNELS 6 Xposition Yposition Zposition Xrotation Yrotation Zrotation
			JOINT RightFoot
			{
				OFFSET 0.000000 -0.000001 -10.930849
				CHANNELS 6 Xposition Yposition Zposition Xrotation Yrotation Zrotation
				JOINT RightToeBase
				{
					OFFSET 0.000000 -4.087269 -1.487650
					CHANNELS 6 Xposition Yposition Zposition Xrotation Yrotation Zrotation
					End Site
					{
						OFFSET 0.000000 -1.891870 0.000000
					}
				}
			}
		}
	}
	JOINT LeftUpLeg
	{
		OFFSET 2.338570 -0.252550 -0.551512
		CHANNELS 6 Xposition Yposition Zposition Xrotation Yrotation Zrotation
		JOINT LeftLeg
		{
			OFFSET 0.000000 0.000000 -10.744959
			CHANNELS 6 Xposition Yposition Zposition Xrotation Yrotation Zrotation
			JOINT LeftFoot
			{
				OFFSET 0.000000 -0.000001 -10.930849
				CHANNELS 6 Xposition Yposition Zposition Xrotation Yrotation Zrotation
				JOINT LeftToeBase
				{
					OFFSET 0.000000 -4.087269 -1.487650
					CHANNELS 6 Xposition Yposition Zposition Xrotation Yrotation Zrotation
					End Site
					{
						OFFSET 0.000000 -1.891870 0.000000
					}
				}
			}
		}
	}
}
MOTION
Frames: 6
Frame Time: 0.041667
-0.000049 26.534426 40.176189 -12.233494 11.174588 -15.169794 -0.000005 0.900096 1.860707 28.015535 -6.118349 -0.196243 -0.000001 0.400311 2.270293 -0.000006 -0.000000 0.000002 0.000012 0.200926 2.296518 0.000001 -0.000000 0.000000 0.000007 -0.000036 2.305337 -0.000016 0.000002 -1.956963 -0.000013 -0.864472 6.051511 -5.048493 -3.412139 -175.468256 0.000016 -0.550439 3.121696 0.000001 -0.000000 -0.000001 -0.788288 -1.313763 4.256751 -127.008324 50.996644 -52.461532 -3.915099 -0.000016 -0.000011 -0.000002 0.000002 -0.000001 -6.914876 0.000017 0.000006 0.000008 -0.000011 -28.606241 -6.096189 -0.000013 0.000007 0.000052 0.000135 -0.000007 -1.749926 0.000012 -0.000003 0.000001 0.000002 0.000001 -0.700007 -1.166609 -0.466652 0.000006 0.000004 -0.000013 0.788263 -1.313805 4.256717 -115.556911 -48.835627 62.598465 3.915144 -0.000014 0.000015 -0.000005 0.000000 0.000001 6.914897 -0.000008 -0.000018 0.000013 -0.000001 28.780867 6.096225 0.000051 0.000004 0.000089 -0.000119 -0.000033 1.749937 0.000014 0.000005 -0.000002 -0.000003 -0.000000 0.699984 -1.166603 -0.466658 0.000009 -0.000002 -0.000022 -2.338583 -0.252559 -0.551518 21.151416 -7.524483 -0.149477 0.000003 -0.000006 -10.744953 11.703683 6.593339 -1.598019 -0.000018 0.000007 -10.930857 0.000020 -0.000004 -0.000001 0.000008 -4.087272 -1.487637 0.000005 0.000003 0.000001 2.338567 -0.252551 -0.551452 24.798919 -4.757487 -0.177313 -0.000005 -0.000010 -10.744917 3.719016 2.076400 -0.333785 -0.000001 -0.000004 -10.930868 0.000026 -0.000005 -0.000001 -0.000012 -4.087229 -1.487645 0.000004 -0.000001 -0.000002 
-0.000047 26.534428 40.176197 -12.792052 10.071569 -15.119249 -0.000004 0.900098 1.860702 28.284710 -4.759080 -0.604470 -0.000002 0.400308 2.270293 -0.000008 0.000000 0.000004 0.000014 0.200925 2.296507 -0.000000 -0.000001 -0.000001 0.000009 -0.000034 2.305337 -0.000015 0.000001 -1.446393 -0.000014 -0.864475 6.051503 -5.023819 -3.902551 -175.736369 0.000016 -0.550437 3.121700 0.000002 -0.000000 -0.000002 -0.788288 -1.313763 4.256760 -125.094942 50.868032 -54.755885 -3.915107 -0.000020 -0.000008 -0.000000 0.000001 -0.000002 -6.914880 0.000008 0.000010 0.000009 -0.000010 -29.098109 -6.096189 -0.000012 0.000010 0.000050 0.000139 -0.000010 -1.749933 0.000008 -0.000001 0.000002 -0.000003 0.000001 -0.700012 -1.166612 -0.466642 0.000006 -0.000000 -0.000014 0.788262 -1.313808 4.256715 -122.984058 -55.016043 55.298379 3.915147 -0.000009 0.000015 -0.000001 0.000001 0.000001 6.914895 -0.000007 -0.000013 0.000010 -0.000006 25.927881 6.096221 0.000050 0.000000 0.000085 -0.000118 -0.000032 1.749932 0.000015 0.000005 -0.000004 -0.000001 0.000001 0.699979 -1.166603 -0.466658 0.000010 -0.000002 -0.000019 -2.338583 -0.252555 -0.551522 21.455323 -6.104699 -0.466138 0.000003 -0.000005 -10.744946 11.816238 5.705593 -1.486151 -0.000018 0.000007 -10.930857 0.000022 -0.000004 0.000003 0.000006 -4.087273 -1.487636 0.000004 0.000001 -0.000000 2.338569 -0.252550 -0.551459 24.933320 -3.386687 -0.539113 -0.000006 -0.000010 -10.744912 3.974233 1.548255 -0.315347 0.000001 -0.000009 -10.930868 0.000024 -0.000005 0.000001 -0.000011 -4.087233 -1.487643 -0.000003 -0.000002 -0.000003 
-0.000044 26.534426 40.176224 -12.997755 8.952909 -14.913677 -0.000006 0.900099 1.860692 27.939333 -3.647584 -0.975574 0.000000 0.400308 2.270285 -0.000006 -0.000000 0.000002 0.000013 0.200923 2.296520 -0.000002 -0.000001 -0.000002 0.000009 -0.000036 2.305333 -0.000015 0.000001 -0.693723 -0.000014 -0.864471 6.051508 -4.788957 -3.802534 -176.521690 0.000017 -0.550435 3.121696 0.000002 0.000001 -0.000005 -0.788288 -1.313762 4.256756 -123.310623 50.069296 -56.553772 -3.915100 -0.000020 -0.000008 -0.000003 0.000001 -0.000002 -6.914879 0.000012 0.000007 0.000008 -0.000013 -29.617930 -6.096184 -0.000014 0.000005 0.000054 0.000138 -0.000009 -1.749927 0.000010 -0.000005 -0.000000 0.000001 0.000000 -0.700004 -1.166611 -0.466649 0.000005 0.000004 -0.000013 0.788267 -1.313807 4.256722 -133.035392 -59.369616 44.960291 3.915145 -0.000016 0.000011 -0.000000 0.000000 0.000001 6.914902 -0.000008 -0.000020 0.000015 -0.000006 24.674764 6.096231 0.000050 0.000003 0.000083 -0.000121 -0.000035 1.749934 0.000012 -0.000003 0.000002 -0.000002 0.000001 0.699984 -1.166607 -0.466658 0.000010 0.000000 -0.000021 -2.338584 -0.252555 -0.551524 21.321530 -4.984436 -0.757412 0.000004 -0.000008 -10.744949 11.473496 5.250677 -1.370424 -0.000018 0.000001 -10.930860 0.000022 -0.000004 0.000003 0.000007 -4.087275 -1.487635 0.000005 0.000002 -0.000000 2.338565 -0.252548 -0.551455 24.726912 -2.323684 -0.871726 -0.000004 -0.000009 -10.744911 4.331843 0.880513 -0.318849 -0.000001 0.000002 -10.930864 0.000024 -0.000005 0.000003 -0.000014 -4.087224 -1.487644 -0.000002 -0.000000 0.000000 
-0.000033 26.534426 40.176262 -13.044913 8.021563 -14.553752 -0.000005 0.900095 1.860697 27.531010 -2.786220 -1.234592 -0.000001 0.400307 2.270287 -0.000008 0.000000 0.000003 0.000013 0.200927 2.296511 -0.000001 -0.000001 -0.000001 0.000009 -0.000041 2.305334 -0.000015 -0.000000 -0.116338 -0.000013 -0.864473 6.051505 -4.419807 -4.073244 -177.755072 0.000017 -0.550433 3.121689 0.000000 -0.000000 -0.000001 -0.788286 -1.313765 4.256753 -122.040495 48.855759 -57.670921 -3.915094 -0.000011 -0.000012 -0.000003 0.000002 -0.000002 -6.914874 0.000012 0.000007 0.000011 -0.000016 -31.332977 -6.096196 -0.000013 0.000005 0.000052 0.000138 -0.000009 -1.749928 0.000010 -0.000000 0.000001 0.000002 -0.000004 -0.700004 -1.166608 -0.466645 0.000006 0.000004 -0.000015 0.788263 -1.313809 4.256715 -144.299330 -61.010364 33.523651 3.915150 -0.000012 0.000015 0.000004 -0.000000 0.000002 6.914900 -0.000010 -0.000013 0.000017 -0.000009 24.366263 6.096231 0.000050 0.000003 0.000085 -0.000120 -0.000029 1.749939 0.000010 0.000001 0.000002 0.000001 0.000003 0.699982 -1.166608 -0.466655 0.000010 -0.000000 -0.000019 -2.338583 -0.252556 -0.551521 21.019839 -4.405858 -0.959265 0.000004 -0.000009 -10.744951 11.654718 5.103470 -1.386505 -0.000017 0.000008 -10.930858 0.000017 -0.000004 0.000001 0.000006 -4.087274 -1.487637 0.000002 0.000002 0.000003 2.338566 -0.252552 -0.551455 24.324283 -1.821378 -1.101293 -0.000005 -0.000012 -10.744921 4.597770 0.879855 -0.341596 -0.000001 -0.000009 -10.930867 0.000024 -0.000005 0.000003 -0.000011 -4.087227 -1.487641 -0.000001 -0.000001 -0.000003 
-0.000036 26.534424 40.176247 -13.279828 7.581014 -14.326166 -0.000006 0.900097 1.860700 27.137605 -2.454088 -1.332615 -0.000000 0.400311 2.270289 -0.000007 -0.000001 0.000003 0.000012 0.200926 2.296518 -0.000001 0.000000 0.000003 0.000008 -0.000037 2.305337 -0.000015 -0.000001 0.417196 -0.000014 -0.864470 6.051507 -3.807156 -4.418519 -177.728626 0.000017 -0.550433 3.121693 0.000001 -0.000000 -0.000001 -0.788286 -1.313763 4.256759 -122.611963 48.799857 -57.208247 -3.915106 -0.000015 -0.000008 -0.000000 0.000000 -0.000002 -6.914879 0.000009 0.000006 0.000009 -0.000015 -33.337925 -6.096189 -0.000013 0.000005 0.000052 0.000139 -0.000007 -1.749929 0.000009 -0.000000 0.000002 -0.000000 0.000001 -0.700007 -1.166612 -0.466649 0.000008 0.000002 -0.000015 0.788262 -1.313806 4.256718 -154.087169 -60.521309 23.938549 3.915147 -0.000011 0.000019 -0.000004 0.000002 0.000000 6.914895 -0.000012 -0.000013 0.000016 -0.000005 25.124627 6.096234 0.000045 -0.000001 0.000083 -0.000120 -0.000031 1.749941 0.000012 0.000008 0.000005 -0.000000 0.000000 0.699988 -1.166608 -0.466655 0.000017 0.000001 -0.000020 -2.338584 -0.252558 -0.551518 21.111976 -4.217246 -1.054246 0.000005 -0.000009 -10.744950 12.156831 5.091784 -1.454500 -0.000018 0.000002 -10.930854 0.000026 -0.000003 -0.000000 0.000008 -4.087275 -1.487638 0.000003 0.000001 -0.000002 2.338566 -0.252552 -0.551452 24.145757 -1.518394 -1.195959 -0.000004 -0.000011 -10.744916 5.129696 0.511943 -0.374757 -0.000002 -0.000006 -10.930866 0.000024 -0.000005 0.000002 -0.000012 -4.087233 -1.487644 0.000004 -0.000001 -0.000001 
-0.000043 26.534412 40.176228 -13.315857 7.027667 -14.094269 -0.000005 0.900095 1.860705 26.423707 -2.121402 -1.434989 -0.000002 0.400308 2.270285 -0.000008 -0.000000 0.000004 0.000013 0.200924 2.296518 -0.000001 -0.000000 -0.000001 0.000007 -0.000040 2.305333 -0.000015 0.000001 0.639807 -0.000013 -0.864469 6.051510 -3.255756 -4.459880 -177.356681 0.000017 -0.550441 3.121700 0.000002 -0.000000 -0.000000 -0.788285 -1.313762 4.256760 -124.616214 49.216912 -55.027986 -3.915106 -0.000016 -0.000008 0.000001 0.000001 -0.000000 -6.914879 0.000012 0.000005 0.000007 -0.000018 -36.410055 -6.096187 -0.000017 0.000009 0.000052 0.000137 -0.000008 -1.749928 0.000011 -0.000000 -0.000000 -0.000001 -0.000000 -0.700009 -1.166611 -0.466652 0.000003 0.000001 -0.000013 0.788269 -1.313807 4.256724 -164.531840 -59.348818 13.943816 3.915150 -0.000014 0.000015 -0.000004 -0.000001 0.000003 6.914895 -0.000007 -0.000013 0.000012 -0.000004 26.589078 6.096233 0.000055 -0.000000 0.000087 -0.000123 -0.000034 1.749939 0.000012 0.000004 0.000000 0.000000 -0.000000 0.699988 -1.166605 -0.466655 0.000005 0.000000 -0.000023 -2.338583 -0.252558 -0.551511 21.036313 -4.133793 -1.160455 0.000004 -0.000005 -10.744949 12.622976 5.334094 -1.552888 -0.000018 0.000007 -10.930858 0.000026 -0.000003 0.000000 0.000009 -4.087271 -1.487638 0.000006 0.000002 -0.000001 2.338567 -0.252556 -0.551443 23.898147 -1.345650 -1.307205 -0.000003 -0.000011 -10.744911 4.978597 0.735763 -0.373100 -0.000000 -0.000004 -10.930865 0.000027 -0.000005 0.000004 -0.000013 -4.087227 -1.487643 -0.000002 -0.000001 -0.000000 
